# xmcd
#
# Track frame offsets: 
#        150
#        13440
#        47075
#        67312
#        88292
#        115067
#        135620
#        158295
#        181310
#        206807
#
# Disc length: 3001 seconds
#
# Revision: 0
# Processed by: cddbd v1.5PL3 Copyright (c) Steve Scherf et al.
# Submitted via: ExactAudioCopy v0.95a4
#
DISCID=8f0bb70a
DTITLE=Bobby Stone - House Party
DYEAR=2000
DGENRE=blues
TTITLE0=Rock Me Baby
TTITLE1=Stormy Monday
TTITLE2=Lennon Blues
TTITLE3=You Told Me
TTITLE4=Baby Please Don't Go
TTITLE5=What I Say
TTITLE6=Gumblin' Woman
TTITLE7=Mojo
TTITLE8=House Party
TTITLE9=I Love You
EXTD=
EXTT0=
EXTT1=
EXTT2=
EXTT3=
EXTT4=
EXTT5=
EXTT6=
EXTT7=
EXTT8=
EXTT9=
PLAYORDER=
